<svg width="523" height="261" viewBox="0 0 523 261" fill="none" xmlns="http://www.w3.org/2000/svg">
<path fill-rule="evenodd" clip-rule="evenodd" d="M26.5132 259.806H127.457C204.254 259.806 246.611 227.145 246.611 180.751C246.611 154.028 231.172 138.068 207.817 128.047C243.84 120.624 267.196 98.3552 267.196 63.8381C267.196 28.9498 238.298 0 173.377 0H91.4341C75.5997 0 62.5364 10.3922 57.3902 28.5787L1.9699 222.691C-4.75971 246.445 6.32435 259.806 26.5132 259.806ZM123.172 192.274L116.971 212.027C114.424 220.139 125.663 225.564 131.142 218.868L176.906 162.934C181.016 157.911 177.222 150.622 170.497 150.622H163.006C157.515 150.622 153.616 145.572 155.299 140.639L173.803 86.4123C173.856 86.2566 173.904 86.1008 173.946 85.9452L191.157 91.8518C195.497 93.3411 200.275 91.1092 201.653 86.9497L209.334 63.7525C210.963 58.832 207.068 53.8319 201.606 53.8319H102.014C98.7195 53.8319 95.7531 55.7163 94.513 58.5973L84.4025 82.0845C82.034 87.5869 86.9307 93.4243 93.1489 92.5111L110.895 89.9049L82.466 172.458C80.7657 177.396 84.6654 182.461 90.1663 182.461H115.409C120.821 182.461 124.71 187.376 123.172 192.274Z" fill="white"/>
<path d="M305.318 110.281H324.446C334.319 110.281 339.995 107.071 339.995 99.7862C339.995 95.3412 336.416 92.0075 328.025 92.0075H310.131L305.318 110.281ZM295.939 145.101H318.276C327.778 145.101 333.702 141.026 333.702 134.235C333.702 129.173 329.753 126.086 321.854 126.086H300.999L295.939 145.101ZM315.437 161.769L213.658 162.51C207.364 162.51 257.52 163.247 276.476 146.623C295.433 130 293.188 89.6922 293.594 84.8461C294 80 299.271 75.3387 304.207 75.3387H329.753C349.991 75.3387 359 84.9696 359 96.576C359 108.059 351.719 115.467 340.489 117.937C347.77 121.27 352.583 126.58 352.583 135.47C352.583 150.904 339.378 161.769 315.437 161.769Z" fill="white"/>
<path d="M393.927 86.9451L376.156 153.003C374.552 159.053 370.479 162.51 365.543 162.51C359.249 162.51 355.794 158.065 357.892 150.163L375.662 84.1053C377.267 78.0551 381.339 74.5979 386.275 74.5979C392.569 74.5979 396.025 79.0429 393.927 86.9451Z" fill="white"/>
<path d="M444.639 161.769H398.979C392.685 161.769 389.23 157.324 391.327 149.422L408.851 84.1053C410.456 78.0551 414.528 74.5979 419.464 74.5979C425.758 74.5979 429.213 79.0429 427.115 86.9451L411.69 144.483H444.639C449.452 144.483 453.154 148.311 453.154 153.126C453.154 158.065 449.452 161.769 444.639 161.769Z" fill="white"/>
<path d="M514.485 161.769H468.824C462.53 161.769 459.075 157.324 461.173 149.422L478.697 84.1053C480.301 78.0551 484.374 74.5979 489.31 74.5979C495.604 74.5979 499.059 79.0429 496.961 86.9451L481.535 144.483H514.485C519.298 144.483 523 148.311 523 153.126C523 158.065 519.298 161.769 514.485 161.769Z" fill="white"/>
<path d="M314.438 191.362L298.272 251.493C296.667 257.543 292.595 261 287.659 261C281.365 261 274.5 257.5 280.007 248.653C285.515 239.806 311.04 204 289.5 193C267.96 182 186.599 181.419 186.599 181.419C181.786 181.419 189.17 187.41 189.17 182.595C189.17 177.78 180.5 185.435 185.312 185.435L335.047 173.828C339.86 173.828 343.809 177.78 343.809 182.595C343.809 187.41 339.86 191.362 335.047 191.362H314.438Z" fill="white"/>
<path d="M367.888 185.435L350.117 251.493C348.513 257.543 344.44 261 339.504 261C333.21 261 329.755 256.555 331.853 248.653L349.623 182.595C351.228 176.545 355.3 173.088 360.236 173.088C366.53 173.088 369.986 177.533 367.888 185.435Z" fill="white"/>
<path d="M418.6 260.259H372.94C366.646 260.259 363.191 255.814 365.288 247.912L382.812 182.595C384.417 176.545 388.489 173.088 393.425 173.088C399.719 173.088 403.174 177.533 401.077 185.435L385.651 242.973H418.6C423.413 242.973 427.115 246.801 427.115 251.616C427.115 256.555 423.413 260.259 418.6 260.259Z" fill="white"/>
<path d="M488.446 260.259H442.785C436.491 260.259 433.036 255.814 435.134 247.912L452.658 182.595C454.262 176.545 458.335 173.088 463.271 173.088C469.565 173.088 473.02 177.533 470.922 185.435L455.496 242.973H488.446C493.259 242.973 496.961 246.801 496.961 251.616C496.961 256.555 493.259 260.259 488.446 260.259Z" fill="white"/>
</svg>
